<svg xmlns="http://www.w3.org/2000/svg" viewBox="0 0 500 500"><g id="freepik--background-complete--inject-5"><path d="M422.41,330.16l13.35-.28,6.58-.11c2.19,0,4.37,0,6.55,0l-.45.44L448.39,319l.5.5-13.24-.06c-4.42,0-8.83-.11-13.24-.17l.27-.27c0,1.83-.09,3.67-.13,5.54Zm0,0-.15-5.54c0-1.86-.11-3.75-.13-5.65v-.27h.28c4.41-.05,8.82-.16,13.24-.17l13.24-.06h.5v.5l-.06,11.19v.45h-.44c-2.23,0-4.47,0-6.7-.06l-6.66-.11Z" style="fill:#ebebeb"></path><path d="M437.18,344.27l13.35-.28,6.58-.11c2.19-.05,4.37,0,6.55-.05l-.45.44,0-11.19.5.5-13.24-.06c-4.41,0-8.83-.12-13.24-.17l.27-.27c0,1.83-.08,3.67-.13,5.54Zm0,0-.14-5.54c-.05-1.86-.12-3.75-.13-5.65v-.27h.28c4.41-.05,8.83-.16,13.24-.17l13.24-.06h.5v.5l-.06,11.19v.45h-.44c-2.23,0-4.47,0-6.7-.06l-6.66-.11Z" style="fill:#ebebeb"></path><path d="M226.2,90l13.36-.28,6.58-.11c2.19,0,4.36,0,6.54,0l-.44.44-.05-11.19.49.5-13.24-.06c-4.41,0-8.82-.11-13.24-.17l.28-.27c0,1.83-.09,3.67-.13,5.54Zm0,0-.14-5.53c0-1.87-.11-3.76-.13-5.66v-.27h.27c4.42,0,8.83-.16,13.24-.17l13.24-.06h.51v.5L253.13,90v.45h-.45c-2.23,0-4.46,0-6.69-.06l-6.66-.11Z" style="fill:#ebebeb"></path><path d="M241,104.13l13.35-.28,6.58-.11c2.19,0,4.36,0,6.55,0l-.45.44L267,92.94l.5.5-13.24-.06c-4.42,0-8.83-.11-13.24-.17l.27-.27c0,1.83-.09,3.67-.13,5.54Zm0,0-.15-5.54c0-1.86-.11-3.75-.13-5.65v-.27H241c4.41,0,8.82-.16,13.24-.17l13.24-.06h.5v.5l-.06,11.19v.45h-.44c-2.24,0-4.47,0-6.7-.06l-6.66-.11Z" style="fill:#ebebeb"></path><path d="M255.69,90,269,89.74l6.58-.11c2.19,0,4.37,0,6.55,0l-.45.44-.05-11.19.5.5-13.24-.06c-4.41,0-8.83-.11-13.24-.17l.27-.27c0,1.83-.08,3.67-.13,5.54Zm0,0-.14-5.53c-.05-1.87-.12-3.76-.13-5.66v-.27h.28c4.41,0,8.83-.16,13.24-.17l13.24-.06h.5v.5L282.62,90v.45h-.44c-2.23,0-4.47,0-6.69-.06l-6.67-.11Z" style="fill:#ebebeb"></path><path d="M36.34,344.27,49.7,344l6.58-.11c2.18-.05,4.36,0,6.54-.05l-.44.44-.06-11.19.5.5-13.24-.06c-4.41,0-8.83-.12-13.24-.17l.27-.27c0,1.83-.08,3.67-.13,5.54Zm0,0-.14-5.54c-.05-1.86-.11-3.75-.13-5.65v-.27h.27c4.41-.05,8.83-.16,13.24-.17l13.24-.06h.5v.5l0,11.19v.45h-.45c-2.23,0-4.47,0-6.69-.06l-6.66-.11Z" style="fill:#ebebeb"></path><path d="M346.32,184l13.36-.28,6.58-.11c2.19,0,4.36,0,6.55-.06l-.45.45-.05-11.19.5.5-13.24-.06c-4.42,0-8.83-.12-13.25-.17l.28-.27c0,1.83-.09,3.67-.13,5.54Zm0,0-.14-5.54c0-1.86-.11-3.75-.13-5.65v-.27h.27c4.42-.05,8.83-.16,13.25-.17l13.24-.06h.5v.5L373.25,184v.45h-.44c-2.24,0-4.47,0-6.7-.06l-6.66-.11Z" style="fill:#ebebeb"></path><path d="M51.11,60.59l13.36-.28,6.58-.11c2.19-.05,4.36,0,6.54-.05l-.44.44L77.09,49.4l.5.5-13.24-.06c-4.41,0-8.82-.11-13.24-.17l.28-.27c0,1.83-.09,3.68-.14,5.54Zm0,0L51,55.06c0-1.87-.11-3.76-.13-5.66v-.27h.27c4.42-.05,8.83-.16,13.24-.16l13.24-.07h.51v.5l0,11.19V61h-.45c-2.23,0-4.47,0-6.69-.06l-6.66-.11Z" style="fill:#ebebeb"></path><path d="M36.34,74.7l13.36-.28,6.58-.11c2.18,0,4.36,0,6.54,0l-.44.44-.06-11.19.5.5L49.58,64c-4.41,0-8.83-.11-13.24-.17l.27-.27c0,1.83-.08,3.67-.13,5.54Zm0,0-.14-5.53c-.05-1.87-.11-3.76-.13-5.66v-.27h.27c4.41-.05,8.83-.16,13.24-.16L62.82,63h.5v.5l0,11.19v.45h-.45c-2.23,0-4.47,0-6.69-.06L49.47,75Z" style="fill:#ebebeb"></path><path d="M432.41,60.59l13.35-.28,6.58-.11c2.19-.05,4.37,0,6.55-.05l-.45.44-.05-11.19.5.5-13.24-.06c-4.42,0-8.83-.11-13.24-.17l.27-.27c0,1.83-.09,3.68-.13,5.54Zm0,0-.15-5.53c0-1.87-.11-3.76-.13-5.66v-.27h.28c4.41-.05,8.82-.16,13.24-.16l13.24-.07h.5v.5l-.06,11.19V61h-.44c-2.23,0-4.47,0-6.7-.06l-6.66-.11Z" style="fill:#ebebeb"></path><rect x="427.03" width="1" height="91.16" style="fill:#c7c7c7"></rect><polygon points="395.88 121.68 398.42 127.27 456.65 127.27 459.19 121.68 434.4 104.52 420.67 104.52 395.88 121.68" style="fill:#ebebeb"></polygon><polygon points="418.94 87.99 420.67 104.52 434.4 104.52 436.12 87.99 418.94 87.99" style="fill:#dbdbdb"></polygon><polygon points="395.88 121.68 398.43 127.28 456.65 127.28 459.19 121.68 395.88 121.68" style="fill:#dbdbdb"></polygon><rect x="359.06" width="1" height="73.1" style="fill:#c7c7c7"></rect><polygon points="327.91 103.62 330.45 109.22 388.68 109.22 391.22 103.62 366.43 86.46 352.7 86.46 327.91 103.62" style="fill:#ebebeb"></polygon><polygon points="350.98 69.93 352.7 86.46 366.43 86.46 368.15 69.93 350.98 69.93" style="fill:#dbdbdb"></polygon><polygon points="327.91 103.62 330.46 109.22 388.68 109.22 391.22 103.62 327.91 103.62" style="fill:#dbdbdb"></polygon><rect x="81.45" y="259.24" width="114.78" height="190.15" transform="translate(277.67 708.64) rotate(180)" style="fill:#ebebeb"></rect><rect x="76.34" y="253.83" width="125" height="5.42" transform="translate(277.67 513.07) rotate(180)" style="fill:#dbdbdb"></rect><rect x="39.95" y="253.83" width="36.38" height="5.42" transform="translate(116.29 513.07) rotate(180)" style="fill:#ebebeb"></rect><rect x="45.71" y="259.24" width="35.73" height="190.15" transform="translate(127.16 708.64) rotate(180)" style="fill:#dbdbdb"></rect><path d="M184.86,379.55H92.81V332.79h92.05Zm-91.8-.25h91.55V333H93.06Z" style="fill:#c7c7c7"></path><rect x="129.62" y="346.45" width="25.42" height="9.26" transform="translate(284.66 702.16) rotate(180)" style="fill:#c7c7c7"></rect><path d="M150.4,355.14H124.73V347H150.4ZM125,354.89h25.17v-7.62H125Z" style="fill:#c7c7c7"></path><path d="M184.86,438.31H92.81V391.55h92.05Zm-91.8-.25h91.55V391.8H93.06Z" style="fill:#c7c7c7"></path><rect x="129.62" y="405.21" width="25.42" height="9.26" transform="translate(284.66 819.68) rotate(180)" style="fill:#c7c7c7"></rect><path d="M150.4,413.9H124.73v-8.12H150.4ZM125,413.65h25.17V406H125Z" style="fill:#c7c7c7"></path><path d="M184.86,320.79H92.81V274h92.05Zm-91.8-.25h91.55V274.28H93.06Z" style="fill:#c7c7c7"></path><rect x="129.62" y="287.69" width="25.42" height="9.26" transform="translate(284.66 584.64) rotate(180)" style="fill:#c7c7c7"></rect><path d="M150.4,296.38H124.73v-8.11H150.4ZM125,296.13h25.17v-7.61H125Z" style="fill:#c7c7c7"></path><path d="M187.54,216.78H50V46.56H187.54ZM54.07,212.7H183.46V50.64H54.07Z" style="fill:#ebebeb"></path><rect x="116.73" y="51.71" width="4.08" height="163.04" style="fill:#ebebeb"></rect><rect x="46.29" y="54.81" width="144.96" height="5.68" style="fill:#ebebeb"></rect><rect x="46.29" y="61.2" width="144.96" height="5.68" style="fill:#ebebeb"></rect><rect x="46.29" y="67.6" width="144.96" height="5.68" style="fill:#ebebeb"></rect><rect x="46.29" y="73.99" width="144.96" height="5.68" style="fill:#ebebeb"></rect><rect x="46.29" y="80.39" width="144.96" height="5.68" style="fill:#ebebeb"></rect><rect x="46.29" y="86.78" width="144.96" height="5.68" style="fill:#ebebeb"></rect><rect x="46.29" y="93.17" width="144.96" height="5.68" style="fill:#ebebeb"></rect><rect x="46.29" y="99.57" width="144.96" height="5.68" style="fill:#ebebeb"></rect><rect x="46.29" y="105.96" width="144.96" height="5.68" style="fill:#ebebeb"></rect><rect x="178.1" y="53.66" width="1.02" height="88.73" style="fill:#263238"></rect><polygon points="180.42 147.14 176.8 147.14 177.71 141.94 179.52 141.94 180.42 147.14" style="fill:#263238"></polygon><rect x="181.78" y="53.66" width="1.02" height="116.63" style="fill:#263238"></rect><polygon points="184.1 174.11 180.48 174.11 181.38 168.91 183.19 168.91 184.1 174.11" style="fill:#263238"></polygon><rect x="39.95" y="45.76" width="157.62" height="11.89" style="fill:#dbdbdb"></rect></g><g id="freepik--filling-cabinet--inject-5"><rect x="300.05" y="189.5" width="113.35" height="259.9" style="fill:#455a64"></rect><rect x="295.08" y="184.23" width="123.28" height="5.27" style="fill:#37474f"></rect><rect x="418.37" y="184.23" width="46.17" height="5.27" style="fill:#455a64"></rect><rect x="413.4" y="189.5" width="45.53" height="259.9" style="fill:#37474f"></rect><path d="M402.48,365.6H311V319.87h91.51Zm-91-.5H402V320.37H311.47Z" style="fill:#263238"></path><rect x="340.1" y="333.29" width="26.45" height="9" style="fill:#263238"></rect><path d="M371.43,341.87H344.48v-8.15h26.95Zm-26.45-.5h25.95v-7.15H345Z" style="fill:#263238"></path><path d="M402.48,422.74H311V377h91.51Zm-91-.5H402V377.51H311.47Z" style="fill:#263238"></path><rect x="340.1" y="390.43" width="26.45" height="9" style="fill:#263238"></rect><path d="M371.43,399H344.48v-8.14h26.95ZM345,398.5h25.95v-7.14H345Z" style="fill:#263238"></path><path d="M402.48,251.32H311V205.6h91.51Zm-91-.5H402V206.1H311.47Z" style="fill:#263238"></path><rect x="340.1" y="219.01" width="26.45" height="9" style="fill:#263238"></rect><path d="M371.43,227.59H344.48v-8.15h26.95Zm-26.45-.5h25.95v-7.15H345Z" style="fill:#263238"></path><rect x="350.64" y="267.64" width="12.34" height="5.2" style="fill:#fff"></rect><rect x="350.64" y="268.79" width="12.34" height="0.5" style="fill:#07A2C6"></rect><rect x="350.64" y="271.18" width="12.34" height="0.5" style="fill:#07A2C6"></rect><rect x="322.01" y="262.9" width="80.22" height="45.23" style="fill:#263238"></rect><rect x="322.05" y="249.03" width="70.14" height="50.84" style="fill:#07A2C6"></rect><polygon points="346.83 243.76 322.05 243.76 322.05 249.03 348.26 249.03 346.83 243.76" style="fill:#07A2C6"></polygon><g style="opacity:0.30000000000000004"><rect x="322.05" y="249.03" width="70.14" height="50.84"></rect><polygon points="346.83 243.76 322.05 243.76 322.05 249.03 348.26 249.03 346.83 243.76"></polygon></g><rect x="324.48" y="245.82" width="20.27" height="3.06" style="fill:#fff"></rect><polygon points="392.19 299.87 322.05 299.87 321.54 252.18 391.68 252.18 392.19 299.87" style="fill:#07A2C6"></polygon><polygon points="346.27 247.35 321.49 247.35 321.54 252.18 347.75 252.18 346.27 247.35" style="fill:#07A2C6"></polygon><g style="opacity:0.1"><polygon points="392.19 299.87 322.05 299.87 321.54 252.18 391.68 252.18 392.19 299.87"></polygon><polygon points="346.27 247.35 321.49 247.35 321.54 252.18 347.75 252.18 346.27 247.35"></polygon></g><rect x="318.54" y="245.44" width="70.14" height="50.84" style="fill:#07A2C6"></rect><polygon points="343.32 240.18 318.54 240.18 318.54 245.44 344.74 245.44 343.32 240.18" style="fill:#07A2C6"></polygon><g style="opacity:0.30000000000000004"><rect x="318.54" y="245.44" width="70.14" height="50.84"></rect><polygon points="343.32 240.18 318.54 240.18 318.54 245.44 344.74 245.44 343.32 240.18"></polygon></g><rect x="320.97" y="242.23" width="20.27" height="3.06" style="fill:#fff"></rect><polygon points="388.68 296.28 318.54 296.28 318.03 248.59 388.17 248.59 388.68 296.28" style="fill:#07A2C6"></polygon><polygon points="342.76 243.77 317.98 243.77 318.03 248.59 344.24 248.59 342.76 243.77" style="fill:#07A2C6"></polygon><g style="opacity:0.1"><polygon points="388.68 296.28 318.54 296.28 318.03 248.59 388.17 248.59 388.68 296.28"></polygon><polygon points="342.76 243.77 317.98 243.77 318.03 248.59 344.24 248.59 342.76 243.77"></polygon></g><rect x="286.25" y="227.25" width="70.14" height="50.84" style="fill:#07A2C6"></rect><polygon points="311.03 221.99 286.25 221.99 286.25 227.25 312.45 227.25 311.03 221.99" style="fill:#07A2C6"></polygon><g style="opacity:0.2"><rect x="286.25" y="227.25" width="70.14" height="50.84"></rect><polygon points="311.03 221.99 286.25 221.99 286.25 227.25 312.45 227.25 311.03 221.99"></polygon></g><rect x="288.69" y="223.58" width="20.27" height="3.06" style="fill:#fff"></rect><rect x="292.12" y="205.93" width="50.82" height="65.24" transform="translate(30.79 513.35) rotate(-80.7)" style="fill:#fff"></rect><polygon points="295.9 255.13 299.06 235.53 302.31 215.94 299.15 235.54 295.9 255.13" style="fill:#c7c7c7"></polygon><polygon points="297.49 255.39 300.65 235.79 303.91 216.21 300.75 235.81 297.49 255.39" style="fill:#c7c7c7"></polygon><polygon points="299.09 255.65 302.25 236.05 305.51 216.47 302.35 236.07 299.09 255.65" style="fill:#c7c7c7"></polygon><polygon points="300.69 255.91 303.85 236.31 307.11 216.73 303.95 236.33 300.69 255.91" style="fill:#c7c7c7"></polygon><polygon points="302.29 256.18 305.45 236.57 308.71 216.99 305.55 236.59 302.29 256.18" style="fill:#c7c7c7"></polygon><polygon points="303.88 256.44 307.05 236.84 310.3 217.25 307.14 236.85 303.88 256.44" style="fill:#c7c7c7"></polygon><polygon points="305.48 256.7 308.64 237.1 311.9 217.51 308.74 237.12 305.48 256.7" style="fill:#c7c7c7"></polygon><polygon points="307.08 256.96 310.24 237.36 313.5 217.78 310.34 237.38 307.08 256.96" style="fill:#c7c7c7"></polygon><polygon points="308.68 257.22 311.84 237.62 315.1 218.04 311.94 237.64 308.68 257.22" style="fill:#c7c7c7"></polygon><polygon points="310.28 257.48 313.44 237.88 316.69 218.3 313.54 237.9 310.28 257.48" style="fill:#c7c7c7"></polygon><polygon points="311.87 257.75 315.03 238.15 318.29 218.56 315.13 238.16 311.87 257.75" style="fill:#c7c7c7"></polygon><polygon points="313.47 258.01 316.63 238.41 319.89 218.82 316.73 238.42 313.47 258.01" style="fill:#c7c7c7"></polygon><polygon points="315.07 258.27 318.23 238.67 321.49 219.09 318.33 238.69 315.07 258.27" style="fill:#c7c7c7"></polygon><polygon points="316.67 258.53 319.83 238.93 323.09 219.35 319.93 238.95 316.67 258.53" style="fill:#c7c7c7"></polygon><polygon points="318.27 258.79 321.43 239.19 324.68 219.61 321.52 239.21 318.27 258.79" style="fill:#c7c7c7"></polygon><rect x="316.19" y="249.52" width="3.01" height="6.8" transform="translate(16.74 525.55) rotate(-80.7)" style="fill:#07A2C6"></rect><rect x="315.31" y="241.9" width="3.01" height="10.42" transform="translate(21.74 519.82) rotate(-80.7)" style="fill:#07A2C6"></rect><rect x="314.21" y="234.04" width="3.01" height="14.48" transform="translate(26.58 513.84) rotate(-80.7)" style="fill:#07A2C6"></rect><rect x="314.25" y="227.51" width="3.01" height="16.22" transform="translate(32.19 509.14) rotate(-80.7)" style="fill:#07A2C6"></rect><rect x="313.62" y="220.19" width="3.01" height="19.33" transform="translate(37.35 503.68) rotate(-80.7)" style="fill:#07A2C6"></rect><rect x="313.01" y="212.9" width="3.01" height="22.39" transform="translate(42.52 498.24) rotate(-80.7)" style="fill:#07A2C6"></rect><path d="M295,253.88l6.35,1,6.35,1q6.35,1,12.68,2l-.21.15,1.55-9.53,1.58-9.52,1.63-9.52,1.67-9.52-1.46,9.55-1.5,9.54-1.53,9.54-1.57,9.52,0,.19-.19,0c-4.22-.7-8.45-1.4-12.67-2.13L301.27,255Z" style="fill:#c7c7c7"></path><rect x="321.02" y="253.57" width="3.01" height="0.27" transform="matrix(0.16, -0.99, 0.99, 0.16, 20.02, 530.98)" style="fill:#c7c7c7"></rect><rect x="321.92" y="248.06" width="3.01" height="0.27" transform="translate(26.21 527.25) rotate(-80.7)" style="fill:#c7c7c7"></rect><rect x="322.82" y="242.55" width="3.01" height="0.27" transform="matrix(0.16, -0.99, 0.99, 0.16, 32.41, 523.52)" style="fill:#c7c7c7"></rect><rect x="323.73" y="237.04" width="3.01" height="0.27" transform="translate(38.61 519.79) rotate(-80.7)" style="fill:#c7c7c7"></rect><rect x="324.63" y="231.52" width="3.01" height="0.27" transform="translate(44.81 516.06) rotate(-80.7)" style="fill:#c7c7c7"></rect><rect x="325.53" y="226.01" width="3.01" height="0.27" transform="translate(51 512.33) rotate(-80.7)" style="fill:#c7c7c7"></rect><path d="M315,253.66a36.12,36.12,0,0,0,.38-4.39,43.26,43.26,0,0,0-.07-4.41,37.12,37.12,0,0,0-1.53-8.63,29.7,29.7,0,0,0-3.69-7.93l-.3-.46-.32-.45-.66-.88c-.47-.56-.91-1.15-1.43-1.67a30.47,30.47,0,0,0-3.2-3l0,0A26.3,26.3,0,0,1,312.58,232a28.1,28.1,0,0,1,1.6,4.14,35.6,35.6,0,0,1,1.46,8.75A36.14,36.14,0,0,1,315,253.66Z" style="fill:#263238"></path><polygon points="306.38 221.31 306.42 221.74 304.31 221.92 304.64 224.01 304.21 224.07 303.81 221.53 306.38 221.31" style="fill:#263238"></polygon><rect x="313.43" y="240.44" width="41.4" height="1.68" transform="translate(626.25 -49.46) rotate(99.3)" style="fill:#dbdbdb"></rect><rect x="325.19" y="250.05" width="23.31" height="1.68" transform="translate(638.88 -40.97) rotate(99.3)" style="fill:#dbdbdb"></rect><rect x="281.63" y="233.75" width="23.31" height="1.68" transform="translate(572.19 -16.93) rotate(99.3)" style="fill:#dbdbdb"></rect><polygon points="356.2 278.09 286.07 278.09 280.66 231.47 350.79 231.47 356.2 278.09" style="fill:#07A2C6"></polygon><polygon points="304.88 226.64 280.1 226.64 280.66 231.47 306.86 231.47 304.88 226.64" style="fill:#07A2C6"></polygon><rect x="277.15" y="246.89" width="70.14" height="50.84" style="fill:#07A2C6"></rect><polygon points="301.93 241.62 277.14 241.62 277.14 246.89 303.35 246.89 301.93 241.62" style="fill:#07A2C6"></polygon><g style="opacity:0.2"><rect x="277.15" y="246.89" width="70.14" height="50.84" style="fill:#fff"></rect><polygon points="301.93 241.62 277.14 241.62 277.14 246.89 303.35 246.89 301.93 241.62" style="fill:#fff"></polygon></g><rect x="279.58" y="243.68" width="20.27" height="3.06" style="fill:#fff"></rect><polygon points="347.28 297.73 277.14 297.73 276.64 250.04 346.77 250.04 347.28 297.73" style="fill:#07A2C6"></polygon><polygon points="301.36 245.21 276.58 245.21 276.64 250.04 302.84 250.04 301.36 245.21" style="fill:#07A2C6"></polygon><g style="opacity:0.4"><polygon points="347.28 297.73 277.14 297.73 276.64 250.04 346.77 250.04 347.28 297.73" style="fill:#fff"></polygon><polygon points="301.36 245.21 276.58 245.21 276.64 250.04 302.84 250.04 301.36 245.21" style="fill:#fff"></polygon></g><rect x="272.58" y="262.9" width="91.01" height="45.23" style="fill:#455a64"></rect><path d="M363.83,308.38h-91.5V262.65h91.5Zm-91-.5h90.5V263.15h-90.5Z" style="fill:#263238"></path><rect x="301.45" y="276.06" width="26.45" height="9" style="fill:#263238"></rect><path d="M332.79,284.64h-27v-8.15h27Zm-26.46-.5h26V277h-26Z" style="fill:#263238"></path><rect x="363.78" y="269.68" width="38.45" height="38.45" style="fill:#37474f"></rect></g><g id="freepik--Plant--inject-5"><path d="M397.71,130.71c-3.13,0-9.46-2.46-8.39-4.52s4.32.58,4.46.66c-.1-.15-2.21-4.28-.33-5s3.79,1.27,4.26,3.56c.47-2.29,2.33-4.3,4.26-3.56s-.23,4.84-.33,5c.14-.08,3.42-2.69,4.46-.66S400.84,130.71,397.71,130.71Z" style="fill:#455a64"></path><path d="M413.51,147.59a37,37,0,0,1-.8,5.13,22.19,22.19,0,0,1-3.71,8.81,31.17,31.17,0,0,1-22.65,0c-3.73-4.67-5.06-14.26-4.53-19.19,1-8.91,6.28-12.32,10.9-13.54h0a19.94,19.94,0,0,1,4.95-.63c4.53,0,14.5,1.63,15.85,14.17A27.08,27.08,0,0,1,413.51,147.59Z" style="fill:#07A2C6"></path><path d="M398,128.17c.13,3,.2,5.92.26,8.87s.07,5.92.08,8.88,0,5.92-.11,8.88a74.93,74.93,0,0,1-.62,8.86l.11-1.1.06-1.11c.05-.74.05-1.48.07-2.22,0-1.47.06-2.95.07-4.43,0-3,0-5.92,0-8.88v-8.87C398,134.09,398,131.13,398,128.17Z" style="fill:#fff"></path><path d="M396.08,128.23a37.47,37.47,0,0,0-1.06,4.3c-.29,1.44-.51,2.9-.69,4.36a84.12,84.12,0,0,0-.61,8.82l0,2.21c0,.74,0,1.48,0,2.22,0,1.47.14,2.94.2,4.42,0,.73.11,1.47.17,2.2l.2,2.21.5,4.4c-.24-1.46-.48-2.92-.7-4.38l-.25-2.2c-.08-.74-.18-1.47-.22-2.21-.12-1.48-.23-3-.26-4.43,0-.74-.06-1.48-.06-2.22v-2.22a77.21,77.21,0,0,1,.7-8.86A43.82,43.82,0,0,1,396.08,128.23Z" style="fill:#fff"></path><path d="M393.52,128.6a17.89,17.89,0,0,0-2.25,3.91c-.14.34-.31.68-.44,1l-.38,1.06-.19.53-.15.55-.3,1.08a34.94,34.94,0,0,0-1,8.93l.05,2.25.22,2.25.11,1.12c0,.37.13.74.19,1.11l.38,2.23a10.26,10.26,0,0,0,.24,1.1l.27,1.1.53,2.2,1.34,4.32c-.52-1.42-1-2.84-1.53-4.27l-.59-2.19-.29-1.1a10.38,10.38,0,0,1-.27-1.1l-.42-2.23c-.07-.38-.14-.75-.2-1.12l-.12-1.13-.24-2.26-.07-2.28a33.83,33.83,0,0,1,1.13-9l.33-1.09c.06-.18.11-.36.17-.54l.2-.53.41-1.06c.15-.35.32-.69.47-1A17.31,17.31,0,0,1,393.52,128.6Z" style="fill:#fff"></path><path d="M391.63,129.11a16.51,16.51,0,0,0-3.06,3.4,19.71,19.71,0,0,0-2.18,4,23.19,23.19,0,0,0-1.72,8.9c0,.77,0,1.53.06,2.29s.12,1.52.25,2.27l.17,1.13.24,1.12c.07.38.15.75.25,1.12l.28,1.11c.19.74.43,1.46.65,2.2l.77,2.16.85,2.13.93,2.11a45.84,45.84,0,0,1-3.5-8.52c-.19-.74-.43-1.48-.57-2.23l-.24-1.13-.19-1.15c-.14-.76-.18-1.53-.27-2.29s-.1-1.55-.08-2.32a23.09,23.09,0,0,1,1.84-9,19.94,19.94,0,0,1,2.3-4,19.35,19.35,0,0,1,1.5-1.76A13.08,13.08,0,0,1,391.63,129.11Z" style="fill:#fff"></path><path d="M399.81,128.25a43.82,43.82,0,0,1,2.06,8.62,75.19,75.19,0,0,1,.7,8.86V148c0,.74,0,1.48-.06,2.22,0,1.48-.14,3-.26,4.43,0,.74-.14,1.47-.22,2.21l-.25,2.2c-.22,1.47-.45,2.93-.7,4.38l.5-4.4.2-2.21c.07-.73.14-1.47.17-2.2.07-1.48.19-3,.2-4.42,0-.74,0-1.48,0-2.21l0-2.22a81.5,81.5,0,0,0-.61-8.82c-.18-1.46-.4-2.92-.69-4.36A37.47,37.47,0,0,0,399.81,128.25Z" style="fill:#fff"></path><path d="M402.37,128.62a17.54,17.54,0,0,1,2.43,3.82c.15.35.32.69.47,1l.41,1.06.2.53c.06.18.11.36.17.55l.33,1.08a33.83,33.83,0,0,1,1.13,9l-.07,2.28-.24,2.26-.12,1.13c-.06.37-.13.74-.2,1.12l-.42,2.23a10.34,10.34,0,0,1-.26,1.1l-.3,1.1-.59,2.19c-.51,1.43-1,2.86-1.53,4.27l1.34-4.32.53-2.2.27-1.1a10.26,10.26,0,0,0,.24-1.1l.38-2.23c.06-.37.14-.74.19-1.11l.11-1.12.22-2.25.05-2.25a34.94,34.94,0,0,0-1-8.93l-.3-1.08c0-.18-.09-.37-.15-.54l-.19-.54-.38-1.06c-.13-.35-.3-.69-.44-1A17.89,17.89,0,0,0,402.37,128.62Z" style="fill:#fff"></path><path d="M404.26,129.13a13.84,13.84,0,0,1,1.73,1.52,20.69,20.69,0,0,1,1.49,1.76,20.47,20.47,0,0,1,2.31,4,23.09,23.09,0,0,1,1.83,9c0,.78,0,1.55-.07,2.32s-.14,1.54-.28,2.29l-.18,1.15-.25,1.13c-.14.75-.37,1.49-.57,2.23a45.84,45.84,0,0,1-3.5,8.52l.93-2.1.85-2.14.77-2.16c.22-.73.46-1.46.65-2.2l.28-1.11c.1-.37.18-.74.26-1.12l.23-1.12.17-1.13c.13-.75.17-1.51.26-2.27s.08-1.52.05-2.28a23.06,23.06,0,0,0-1.72-8.91,19.71,19.71,0,0,0-2.18-4A16.51,16.51,0,0,0,404.26,129.13Z" style="fill:#fff"></path><path d="M397,138.75a21.72,21.72,0,0,1,1.31,2H398c.22-.4.46-.79.7-1.18l.37-.57c.14-.19.26-.38.41-.56l-.28.63-.3.61c-.21.41-.43.81-.66,1.21l-.12.2-.12-.2A20.88,20.88,0,0,1,397,138.75Z" style="fill:#fff"></path><path d="M398,137.72a8.49,8.49,0,0,1,.1,3.07,8.49,8.49,0,0,1-.1-3.07Z" style="fill:#fff"></path><path d="M407.2,128.26a20.82,20.82,0,0,1,0,2.37l-.2-.13,1.23-.61.63-.28.64-.25c-.19.14-.38.26-.57.38l-.59.35c-.4.23-.8.45-1.21.65l-.21.11v-.23A18.7,18.7,0,0,1,407.2,128.26Z" style="fill:#fff"></path><path d="M408.67,128a7.43,7.43,0,0,1-.67,1.39,7.9,7.9,0,0,1-.91,1.24,7.65,7.65,0,0,1,.67-1.38A7.82,7.82,0,0,1,408.67,128Z" style="fill:#fff"></path><path d="M404.75,135.34a21,21,0,0,1,1.07,2.12l-.24,0c.27-.37.55-.74.83-1.09.15-.18.29-.36.44-.53s.3-.35.47-.51c-.11.2-.24.4-.35.6s-.25.38-.38.57c-.25.38-.51.76-.79,1.12l-.14.19-.09-.22A18.37,18.37,0,0,1,404.75,135.34Z" style="fill:#fff"></path><path d="M406,134.45a8.81,8.81,0,0,1,0,1.54,8,8,0,0,1-.27,1.52,8.47,8.47,0,0,1,.26-3.06Z" style="fill:#fff"></path><path d="M400.3,158.73a23.21,23.21,0,0,1,1.31,2h-.24c.22-.4.45-.79.7-1.18.12-.19.24-.38.37-.57s.26-.38.41-.56l-.28.63c-.1.21-.2.41-.31.62-.21.4-.42.8-.65,1.2l-.12.21-.12-.21A19.87,19.87,0,0,1,400.3,158.73Z" style="fill:#fff"></path><path d="M401.39,157.7a8.89,8.89,0,0,1,.19,1.53,8,8,0,0,1-.09,1.54,8.49,8.49,0,0,1-.1-3.07Z" style="fill:#fff"></path><path d="M389.88,131.75a16.44,16.44,0,0,1,.68,2.27l-.22-.07c.33-.32.66-.62,1-.93l.52-.44.55-.42c-.14.18-.3.35-.45.53s-.31.33-.47.5c-.31.33-.64.65-1,1l-.18.16-.05-.23A20.3,20.3,0,0,1,389.88,131.75Z" style="fill:#fff"></path><path d="M391.22,131.09a6.92,6.92,0,0,1-.26,1.51,6.81,6.81,0,0,1-.53,1.45,7.79,7.79,0,0,1,.26-1.52A7.55,7.55,0,0,1,391.22,131.09Z" style="fill:#fff"></path><path d="M414.21,140.28a20.58,20.58,0,0,1-.25,2.35l-.19-.15c.43-.17.86-.32,1.29-.46l.66-.21.67-.17-.62.31-.63.28c-.42.18-.84.35-1.27.51l-.22.08,0-.23A18.35,18.35,0,0,1,414.21,140.28Z" style="fill:#fff"></path><path d="M415.7,140.18a8.56,8.56,0,0,1-1.88,2.43,8.56,8.56,0,0,1,1.88-2.43Z" style="fill:#fff"></path><path d="M392.44,149a21.11,21.11,0,0,1,1.33,2h-.24c.22-.4.45-.8.69-1.19.12-.19.24-.39.37-.58s.25-.38.39-.56q-.12.31-.27.63c-.09.21-.19.42-.29.62-.21.41-.42.81-.65,1.21l-.12.21-.12-.21A21.93,21.93,0,0,1,392.44,149Z" style="fill:#fff"></path><path d="M393.52,148a7.12,7.12,0,0,1,.2,1.52,7.2,7.2,0,0,1-.07,1.54,7.12,7.12,0,0,1-.2-1.52A7.23,7.23,0,0,1,393.52,148Z" style="fill:#fff"></path><path d="M384.26,154.22a18.79,18.79,0,0,1,2,1.32l-.22.09c.05-.45.12-.91.19-1.36,0-.22.08-.45.13-.67s.09-.45.16-.67c0,.23,0,.46,0,.68s0,.46,0,.69c0,.46-.09.91-.15,1.36l0,.24-.19-.14C385.44,155.27,384.83,154.77,384.26,154.22Z" style="fill:#fff"></path><path d="M384.88,152.85a8.09,8.09,0,0,1,.76,1.34,7.43,7.43,0,0,1,.51,1.46,7.49,7.49,0,0,1-.77-1.34A8.11,8.11,0,0,1,384.88,152.85Z" style="fill:#fff"></path><path d="M382.24,133.44a20.93,20.93,0,0,1,2.18.92l-.2.14c0-.46-.06-.92-.07-1.37,0-.23,0-.46,0-.69s0-.46,0-.69c.05.23.08.45.12.68l.09.68c.05.46.09.91.11,1.37v.24l-.21-.11A20.81,20.81,0,0,1,382.24,133.44Z" style="fill:#fff"></path><path d="M382.58,132a8,8,0,0,1,1,1.18,7.31,7.31,0,0,1,.77,1.33,8.48,8.48,0,0,1-1-1.17A7.07,7.07,0,0,1,382.58,132Z" style="fill:#fff"></path><path d="M410.15,148.46a19.85,19.85,0,0,1,1.11,2.09l-.24,0c.26-.37.53-.74.81-1.1l.43-.54.45-.52c-.1.21-.22.4-.33.6l-.36.59c-.25.38-.51.76-.77,1.13l-.14.2-.1-.22A19.65,19.65,0,0,1,410.15,148.46Z" style="fill:#fff"></path><path d="M411.33,147.54a8,8,0,0,1,0,1.54,7.87,7.87,0,0,1-.23,1.52,8.16,8.16,0,0,1,.19-3.06Z" style="fill:#fff"></path><polygon points="384.37 161.75 411.26 161.75 408.55 184.23 387.08 184.23 384.37 161.75" style="fill:#455a64"></polygon><polygon points="384.37 161.75 384.98 166.82 410.8 165.58 411.26 161.75 384.37 161.75" style="fill:#263238"></polygon><rect x="382.68" y="158.9" width="30.27" height="4.02" style="fill:#455a64"></rect></g><g id="freepik--Boxes--inject-5"><rect x="39.86" y="401.89" width="101.34" height="47.5" style="fill:#07A2C6"></rect><rect x="39.86" y="401.89" width="101.34" height="47.5" style="fill:#020100;opacity:0.1"></rect><rect x="107.65" y="401.89" width="33.55" height="47.5" style="fill:#020100;opacity:0.1"></rect><polygon points="141.2 401.89 39.86 401.89 39.86 412.33 141.2 407.11 141.2 401.89" style="fill:#020100;opacity:0.1"></polygon><rect x="35.47" y="392.88" width="110.13" height="11.91" style="fill:#07A2C6"></rect><rect x="35.47" y="392.88" width="110.13" height="11.91" style="fill:#020100;opacity:0.1"></rect><rect x="109.13" y="392.88" width="36.46" height="11.91" style="fill:#020100;opacity:0.1"></rect><rect x="62.01" y="411.21" width="23.48" height="7.29" style="fill:#263238"></rect><rect x="54.13" y="338.63" width="65.17" height="47.24" style="fill:#07A2C6"></rect><polygon points="77.16 333.74 54.13 333.74 54.13 338.63 78.48 338.63 77.16 333.74" style="fill:#07A2C6"></polygon><g style="opacity:0.30000000000000004"><rect x="54.13" y="338.63" width="65.17" height="47.24"></rect><polygon points="77.16 333.74 54.13 333.74 54.13 338.63 78.48 338.63 77.16 333.74"></polygon></g><rect x="56.39" y="335.65" width="18.83" height="2.85" style="fill:#fff"></rect><polygon points="119.3 385.87 54.13 385.87 53.66 341.56 118.82 341.56 119.3 385.87" style="fill:#07A2C6"></polygon><polygon points="76.63 337.08 53.61 337.08 53.66 341.56 78 341.56 76.63 337.08" style="fill:#07A2C6"></polygon><g style="opacity:0.1"><polygon points="119.3 385.87 54.13 385.87 53.66 341.56 118.82 341.56 119.3 385.87"></polygon><polygon points="76.63 337.08 53.61 337.08 53.66 341.56 78 341.56 76.63 337.08"></polygon></g><rect x="45.73" y="342.19" width="65.17" height="47.24" style="fill:#07A2C6"></rect><polygon points="68.76 337.3 45.73 337.3 45.73 342.19 70.08 342.19 68.76 337.3" style="fill:#07A2C6"></polygon><g style="opacity:0.2"><rect x="45.73" y="342.19" width="65.17" height="47.24" style="fill:#fff"></rect><polygon points="68.76 337.3 45.73 337.3 45.73 342.19 70.08 342.19 68.76 337.3" style="fill:#fff"></polygon></g><rect x="47.99" y="339.21" width="18.83" height="2.85" style="fill:#fff"></rect><polygon points="110.9 389.43 45.73 389.43 45.26 345.12 110.42 345.12 110.9 389.43" style="fill:#07A2C6"></polygon><polygon points="68.23 340.64 45.21 340.64 45.26 345.12 69.61 345.12 68.23 340.64" style="fill:#07A2C6"></polygon><g style="opacity:0.4"><polygon points="110.9 389.43 45.73 389.43 45.26 345.12 110.42 345.12 110.9 389.43" style="fill:#fff"></polygon><polygon points="68.23 340.64 45.21 340.64 45.26 345.12 69.61 345.12 68.23 340.64" style="fill:#fff"></polygon></g><rect x="43" y="345.37" width="101.34" height="47.5" style="fill:#455a64"></rect><rect x="110.78" y="345.37" width="33.55" height="47.5" style="fill:#37474f"></rect><polygon points="144.33 345.37 43 345.37 43 355.81 144.33 350.59 144.33 345.37" style="fill:#020100;opacity:0.1"></polygon><rect x="65.15" y="354.7" width="23.48" height="7.29" style="fill:#263238"></rect><rect x="55.72" y="330.23" width="110.13" height="11.91" transform="translate(64.65 -14.76) rotate(10.75)" style="fill:#455a64"></rect><rect x="128.74" y="337.1" width="36.46" height="11.91" transform="matrix(0.98, 0.19, -0.19, 0.98, 66.57, -21.39)" style="fill:#37474f"></rect></g><g id="freepik--Character--inject-5"><path d="M336.71,449.05c-2.46.8-72.81.18-75.48-1.54-1-.65-1.53-10.9-1.79-23.3-.05-2.68-5.37-45.85-5.37-45.85l47,.28,3.69,45.84s26.83,12.28,29.56,14.48S339.18,448.25,336.71,449.05Z" style="fill:#f7a9a0"></path><path d="M336.71,449.05c-2.46.8-72.81.18-75.48-1.54-.77-.49-1.25-6.49-1.56-14.78,9.1,2.09,60.25,6.29,66.13,5.58,5.68-.68-7.48-7.45-9.86-8.65,7.72,3.64,16.88,8.06,18.42,9.3C337.06,441.16,339.18,448.25,336.71,449.05Z" style="fill:#263238"></path><path d="M205.08,188.06s-12.3,17.86-5.53,37.26c11.55,33.14,40.88,70.43,41.79,74.69,2.12,10.06,13.43,113.1,13.43,113.1l50.63-.32s-6.72-87.4-15.64-116.27c-4.87-15.76-32.7-59-44.71-80-1.07-1.88,1.46-10,1.46-10Z" style="fill:#263238"></path><path d="M302.34,404c-8.16-.16-32.86-.84-43.74,0-.08,0-.08.14,0,.16,3.73.58,35.58.19,43.74,0A.12.12,0,0,0,302.34,404Z" style="fill:#37474f"></path><path d="M196.32,212.44c3.51,5.66,7.22,11.2,10.81,16.81s7.17,11.23,10.7,16.88q10.59,16.94,20.66,34.18A103.14,103.14,0,0,1,246.8,297a100.69,100.69,0,0,1,4.58,17.9c1,6.11,1.69,12.28,2.31,18.44q1,9.84,1.95,19.69,2,20.14,4,40.3c.16,1.64.32,3.29.47,4.94,0,.24-.41.28-.44,0-1.51-13.35-2.73-26.73-4.09-40.1q-1-10-2-20c-.63-6.18-1.22-12.37-2.1-18.53a123.29,123.29,0,0,0-3.78-17.94A86.57,86.57,0,0,0,240,284.26c-6.44-11.44-13.27-22.68-20.11-33.91s-13.84-22.6-21.06-33.72c-.89-1.38-1.79-2.74-2.72-4.1C196.07,212.43,196.25,212.33,196.32,212.44Z" style="fill:#37474f"></path><path d="M208.6,449.39c-2.59-.19-69.16-28.12-71-30.71a1,1,0,0,1-.09-.5c0-2.3,31.87-60.07,31.87-60.07L212.9,376l-24.67,38.61s20.26,21.46,22,24.52S211.18,449.57,208.6,449.39Z" style="fill:#f7a9a0"></path><path d="M210.19,439.15c1.68,3.06,1,10.42-1.59,10.24s-69.16-28.12-71-30.71a1,1,0,0,1-.09-.5c0-.75,3.42-7.42,8-16.06,9.44-17.81,23.87-44,23.87-44L212.9,376l-24.67,38.61s5.59,5.93,11.14,12l0,0C204.41,432.12,209.38,437.7,210.19,439.15Z" style="fill:#f7a9a0"></path><path d="M208.6,449.39c-2.59-.19-69.16-28.12-71-30.71a1,1,0,0,1-.09-.5c0-.75,3.42-7.42,8-16.06,11.49,12.09,56.83,34.13,58.32,33.51s-4.07-8.44-4.45-9c5,5.48,10,11.06,10.8,12.51C211.87,442.21,211.18,449.57,208.6,449.39Z" style="fill:#263238"></path><path d="M194.65,408.59l-46.44-19.42s59.52-89.43,60-96.06c.47-5.88-25.56-57.4-26.42-72.34-.94-16.11,7-28.48,15.58-36.11l49.09,21.78s-4.29,8.77-12.74,13.41c0,0,25.16,59.49,23.47,77.67S194.65,408.59,194.65,408.59Z" style="fill:#263238"></path><path d="M196.94,399.31c-6.41-2.87-4.53-2.14-11-4.93-3.15-1.37-23.9-10.31-27.09-11-.07,0-.12.11-.06.15,2.73,1.78,23.65,10.33,26.84,11.62,6.5,2.66,4.67,1.82,11.21,4.39C197,399.57,197.06,399.37,196.94,399.31Z" style="fill:#37474f"></path><path d="M241.08,220.33a96.38,96.38,0,0,0-16,2.52.16.16,0,0,0,0,.32c5.34-.68,10.74-1.25,16-2.21A.32.32,0,0,0,241.08,220.33Z" style="fill:#37474f"></path><path d="M235.49,217.34a23.11,23.11,0,0,0-1.71,2.47,6.36,6.36,0,0,0-1,2.14c0,.15.18.22.28.14a8.13,8.13,0,0,0,1.59-1.91c.55-.76,1.13-1.5,1.66-2.27A.5.5,0,0,0,235.49,217.34Z" style="fill:#37474f"></path><path d="M246.07,203.13c0-.09-.15-.17-.18-.08a71.39,71.39,0,0,1-3.46,7.81c-.59,1.19-4.32,7.57-6.7,6.17-.39-.23-.48-.66-.35-1.22a7.75,7.75,0,0,1,1.12-2c.82-1.32,1.58-2.67,2.26-4.05a35,35,0,0,0,2.9-8.08c0-.09-.13-.14-.17-.05a66.71,66.71,0,0,1-4.92,10.83c-1,1.65-3,3.94-.93,5s5.29-2.88,6-4A36.93,36.93,0,0,0,246.07,203.13Z" style="fill:#37474f"></path><path d="M234.53,221.79c1.75,3.82,3.28,7.63,4.91,11.44s3.08,7.49,4.53,11.28c2.91,7.64,5.52,15.43,7.79,23.29q1.68,5.83,3.07,11.75a84.39,84.39,0,0,1,2.19,12,31.57,31.57,0,0,1-1.16,12c-1.19,4-7.92,17.24-9.76,20.95-1.12,2.26-1.5,1.95-.95.81,1.55-3.25,10.78-22.9,10.6-31.21A62.69,62.69,0,0,0,254,282.21c-.88-4-1.88-7.95-3-11.89-2.14-7.75-4.71-15.35-7.36-22.95-1.48-4.25-3.08-8.47-4.59-12.71s-3.09-8.13-4.77-12.8A.1.1,0,0,1,234.53,221.79Z" style="fill:#37474f"></path><path d="M197.52,208.76c.88-.31,2.09.24,3,.4a25.41,25.41,0,0,0,3.47.39,24.7,24.7,0,0,0,3.44-.07,7.44,7.44,0,0,0,3.31-.83,16.52,16.52,0,0,0,4.25-4.41,25.76,25.76,0,0,0,3.35-5.71c0-.12.22,0,.18.09-.38,1.16-.67,2.34-1.15,3.49a22.86,22.86,0,0,1-1.66,3.08c-1.15,1.85-2.47,3.81-4.42,4.89s-4.66,1-6.92.88a27.16,27.16,0,0,1-3.9-.57c-.92-.21-2.48-.38-3.06-1.2A.29.29,0,0,1,197.52,208.76Z" style="fill:#37474f"></path><path d="M163,379.07q12.3-18.12,24.15-36.52t23.39-37.15c1.83-3,3.95-6,5.15-9.26,1.3-3.6.63-7.11-.47-10.66A178.11,178.11,0,0,0,208,266.39c-2.74-6.26-5.71-12.41-8.62-18.59s-6-12.28-8.14-18.71c-2.07-6.14-2.81-12.49-1.09-18.81s5.32-11.88,9.08-17.11c1-1.38,2-2.74,3-4.12.08-.1.24,0,.16.13-4.14,5.45-8.19,11.22-10.65,17.64a30.83,30.83,0,0,0-2.15,9.93A32.38,32.38,0,0,0,191,227c1.9,6.43,5,12.53,7.79,18.58s5.89,12.33,8.68,18.56a197.41,197.41,0,0,1,7.58,19.18c.95,2.91,2,6,1.91,9.06-.11,3.4-1.77,6.44-3.49,9.29C206,314,198.26,326.24,190.41,338.4s-15.89,24.32-24,36.35l-3.09,4.54C163.15,379.48,162.88,379.25,163,379.07Z" style="fill:#37474f"></path><path d="M286.7,160a3,3,0,0,1-1.36,2.6,19.06,19.06,0,0,1-2.19,1.29c.21-2.92.1-5.94,0-8.83-.08-3.39-.35-6.71-.7-10.06,0,0-.07,0-.07,0,.13,3.39.15,6.81.2,10.21,0,3-.13,6-.07,9-.78.36-1.57.67-2.37,1,.05-1,.1-2.08.13-3.12.1-3.13-.05-6.22-.1-9.34,0-.08-.09-.08-.09,0,0,3-.22,6.11-.35,9.15,0,1.17-.1,2.34-.17,3.51-.54.18-1.09.35-1.63.51-.36.1-.72.2-1.08.28.05-2,0-4.12,0-6.13,0-3.25-.2-6.48-.24-9.73,0-.12-.15-.12-.15,0,0,3.24-.13,6.49-.16,9.73,0,2.08-.13,4.21-.14,6.32a38.33,38.33,0,0,1-14.63.33,59,59,0,0,1-8.33-2c-.66-.21-2.34-.8-4-1.41,0-1,0-2,0-2.91.06-2.16,0-4.35.12-6.5,0-.06-.07-.07-.08,0-.17,2.17-.46,4.32-.57,6.49,0,.87-.11,1.78-.15,2.69l-1.66-.64c.32-4.08.23-8.24.35-12.31,0-.1-.11-.1-.12,0-.28,4-.78,8-.87,12.06a5,5,0,0,1-1.09-.53c-.81-.77.29-16.9.47-20.67.34-7,.69-15.43,2.43-22.21,1.49-5.79,4.55-14.07,19-13.82,10.58.19,15.51,11.25,16.38,17.67.44,3.31,2.84,25,3.08,31.91C286.58,156.32,286.73,158.2,286.7,160Z" style="fill:#263238"></path><path d="M245.07,152.52c-1.65,13.27.75,44.34,5.27,50.8C253.79,208.26,275,216,284.07,218c3.89.87,9.5-22.25,6.66-23.27-8.78-3.13-22.8-9-25.15-10.41-1.65-1-4.34-11.45-10.92-31.39C251,141.88,246,145.05,245.07,152.52Z" style="fill:#f7a9a0"></path><path d="M298.65,219.67c-1.56,0-1.54.86.68,2.51s12.44,6.3,10.52,9.72-16.24-3.34-19.73-6.37-8.09-9.17-8.09-9.17C285.08,217.12,292.65,218.26,298.65,219.67Z" style="fill:#f7a9a0"></path><path d="M290,194.66c8.51,2.45,19.25,5,26.13,12.23a5,5,0,0,1,1.41,2.92c3.14,3.19,2.57,5.63,2.57,5.63,2,3.87,1.09,6.29,1.09,6.29s3.64,3.79,1.72,6.38c-2.16,2.9-6.85-3-11.42-4.65-10.45-3.81-26.39-6.3-29.51-7.1Z" style="fill:#f7a9a0"></path><path d="M303.39,211.76a70.94,70.94,0,0,1,9,3.86,71.91,71.91,0,0,1,8.76,6.12c.09.07.2,0,.12-.12a37.82,37.82,0,0,0-17.79-10C303.28,211.59,303.23,211.7,303.39,211.76Z" style="fill:#263238"></path><path d="M304.77,205.12c2.91,1.31,8,3.66,15.31,10.4,0,0,.07,0,0,0A34,34,0,0,0,304.83,205C304.64,204.91,304.57,205,304.77,205.12Z" style="fill:#263238"></path><path d="M305.58,201.56c4.86,2.42,7.62,4.57,12,8.25,0,0,.06,0,0,0-4.51-4.71-6.67-5.9-11.95-8.39C305.45,201.3,305.39,201.46,305.58,201.56Z" style="fill:#263238"></path><path d="M279.93,219.59l8.26-27.38s-19.57-7.64-22.27-9c-1.15-.56-8.08-23-11.58-32.69-2.31-6.38-8.6-9.29-10.27,3.7-1,7.61-.34,44.16,4.82,50C253,208.85,279.93,219.59,279.93,219.59Z" style="fill:#07A2C6"></path><path d="M275.34,216.23c.28-2,2.83-10.2,3.49-12.22s3.57-10,4.25-12.12c0-.12.21-.1.17,0-.64,2.06-2.92,10.33-3.56,12.36s-3.28,10.13-4.24,12A.06.06,0,0,1,275.34,216.23Z" style="fill:#263238"></path><path d="M270.46,215.63c-8.18-3.54-19.09-8.6-21.57-11.41-5.16-5.81-5.8-42.36-4.82-50,1.41-11,6.14-10.6,9-6.34Z" style="fill:#020100;opacity:0.1"></path><path d="M246.51,206.44l4.14-20.87S258,183,257.87,173.5c0-4.37-2.1-21.44-7-28.19-4.62-6.32-12-4.78-16.51-2.58-8.73,4.3-21.15,16.39-36.91,41.93Z" style="fill:#07A2C6"></path><path d="M238.7,178.43a32.22,32.22,0,0,1,5.81,3c.91.62,1.79,1.29,2.66,2,.43.36.88.68,1.32,1a4.85,4.85,0,0,0,1.49.82s0,.12,0,.11a8.17,8.17,0,0,1-1.52-.42,8.7,8.7,0,0,1-1.36-.76c-.93-.61-1.84-1.29-2.76-1.91a67.07,67.07,0,0,0-5.7-3.59C238.52,178.62,238.6,178.39,238.7,178.43Z" style="fill:#263238"></path><path d="M232.94,179.78a33.12,33.12,0,0,1,5.23.93,21.25,21.25,0,0,1,2.51.86c.4.15.79.32,1.18.5s.83.47,1.26.65c0,0,0,.13,0,.11-.41-.16-.86-.21-1.28-.33l-1.27-.37L238,181.4c-1.7-.51-3.39-1-5.11-1.42C232.79,180,232.84,179.77,232.94,179.78Z" style="fill:#263238"></path><path d="M242.88,143.14c-.15,1.11,2.11,9.69,7.12,10.87,2.61.61,4.43-7.57,4.43-7.57l.37-.56,5.16-7.81-7.59-10.25-1.13-1.41s-1.27,2.24-2.82,5c-.07.13-.15.26-.22.4s-.18.3-.26.45c-.24.41-.48.84-.71,1.27s-.35.64-.52,1-.36.69-.54,1A60.8,60.8,0,0,0,242.88,143.14Z" style="fill:#f7a9a0"></path><path d="M248.42,131.44a18.78,18.78,0,0,0,6.38,14.44l5.16-7.81-7.59-10.25-1.13-1.41S250,128.65,248.42,131.44Z" style="fill:#263238"></path><path d="M277.35,130.44c-4.85,15.7-14.8,14.56-18.18,13.51-3.08-.95-13.42-4.58-10.21-20.7s12-18.83,19.17-17S282.2,114.74,277.35,130.44Z" style="fill:#f7a9a0"></path><path d="M275.19,128.38c-.34-.18-.63-.41-.95-.62s-.68-.39-.85-.81a.58.58,0,0,1,.25-.67,1.44,1.44,0,0,1,1.46.2,2.08,2.08,0,0,1,1,1.18A.63.63,0,0,1,275.19,128.38Z" style="fill:#263238"></path><path d="M265.43,122.93a10.6,10.6,0,0,0,1.11.28,1.81,1.81,0,0,0,1.17.06.58.58,0,0,0,.31-.64,1.43,1.43,0,0,0-1.14-.93,2.18,2.18,0,0,0-1.53.09A.63.63,0,0,0,265.43,122.93Z" style="fill:#263238"></path><path d="M266.05,127.53s-.1,0-.11.06c-.37,1-1,2.2-2.06,2.18,0,0-.05,0,0,.06C265.09,130.12,265.87,128.59,266.05,127.53Z" style="fill:#263238"></path><path d="M265.54,126.07c-1.62-.77-3.06,2.54-1.55,3.26S266.91,126.73,265.54,126.07Z" style="fill:#263238"></path><path d="M264.82,126c-.37.06-.8.27-1.16.15s-.58-.61-.7-1.06c0,0,0,0-.07,0a1.32,1.32,0,0,0,.31,1.78,1.34,1.34,0,0,0,1.71-.58C265,126.16,265,125.94,264.82,126Z" style="fill:#263238"></path><path d="M271.94,130.22s.06.09,0,.13c-.5,1-.89,2.24-.12,3,0,0,0,.08,0,.06C270.77,132.73,271.31,131.1,271.94,130.22Z" style="fill:#263238"></path><path d="M273.33,129.57c1.7.62.34,4-1.23,3.39S271.91,129.05,273.33,129.57Z" style="fill:#263238"></path><path d="M273.92,130c.21.31.36.76.7.94s.84,0,1.25-.25c0,0,.06,0,0,.07-.25.64-.77,1.2-1.49,1s-.89-.91-.78-1.62C273.65,130,273.83,129.89,273.92,130Z" style="fill:#263238"></path><path d="M262.39,135.24c.08.37.12.82.44,1.06a2.81,2.81,0,0,0,1.17.4,0,0,0,0,1,0,.08,1.5,1.5,0,0,1-1.52-.24,1.17,1.17,0,0,1-.22-1.31C262.29,135.16,262.37,135.19,262.39,135.24Z" style="fill:#263238"></path><path d="M268.14,134s-.61,1.58-1,2.27c0,.06-.22,0-.46-.11,0,0,0,0,0,0a3.75,3.75,0,0,1-2.51-3,.08.08,0,0,1,.16,0,5.62,5.62,0,0,0,2.52,2.51c.15-.16.95-2.73,1.06-2.68a7,7,0,0,1,1.37,1.22c1.36-3.24,2.19-6.68,3.59-9.89a.11.11,0,0,1,.2.06,56.4,56.4,0,0,1-3.41,10.81C269.48,135.53,268.35,134.22,268.14,134Z" style="fill:#263238"></path><path d="M249.05,123.23c1.69.48,8.92-2.79,11.84-10.74,0,0-3.12,7-4,7.82s3.31-1.72,5.75-8.1A27.85,27.85,0,0,0,268,118c2.75,1.91,4.62,2.53,4.92,2.39s-3.7-3.12-4.43-4.94c0,0,6.8,6.59,10.43,8.18.42.18,3.14-7.81-1.32-13.6s-14.14-5.61-17.42-4.09c0,0-4.47.73-6.91,3.1C249.28,112.89,247.23,122.71,249.05,123.23Z" style="fill:#263238"></path><path d="M251.57,124.21s-1.39-6.1-4-5.8-2.94,8.22-.8,10.19a2.79,2.79,0,0,0,4,0Z" style="fill:#f7a9a0"></path><path d="M247.52,120.68s-.07,0,0,.06c1.48,1.45,1.74,3.47,1.7,5.44a1.53,1.53,0,0,0-2-1.25c-.06,0-.05.1,0,.11a1.71,1.71,0,0,1,1.52,1.27,7.87,7.87,0,0,1,.26,1.74c0,.2.34.23.36,0v0C250.32,125.78,249.85,121.9,247.52,120.68Z" style="fill:#263238"></path><path d="M254.61,146.18l-3.9,6.49-7.41-11.19-3.21,2.31s6.71,16.64,6.92,16l3.85-5.76,3.46,4.58,1.12-10Z" style="fill:#07A2C6"></path><path d="M255.51,148.71c0-.07-.09-.12-.11-.05-.57,2-1.3,9.63-1.3,9.63-.13-.23-3.19-4.3-3.24-4.25a58.6,58.6,0,0,0-3.93,5.3c-.83-2.62-5.42-12.2-6.53-14.75a.06.06,0,0,0-.12,0c.64,2.7,6.39,15.74,6.5,15.73s3.56-5,4.13-6c.45.93,3.46,5,3.54,4.79C255,157.43,255.29,150.53,255.51,148.71Z" style="fill:#263238"></path><path d="M230,150.32c-4.53,17-7.69,48.83-5.15,54.56,2.24,5.08,22.44,14.15,31.73,17.42,3.47,1.23,11.56-26,7.82-27.25-4.49-1.49-17.59-6.34-18-7.51S243.7,164.69,241,151C238.46,138.65,231.75,143.9,230,150.32Z" style="fill:#f7a9a0"></path><path d="M276.83,198.13c8,3.21,9.55,5.26,17.73,4.38,5.37-.57,8,2.61,3.37,5.74-7.63,5.11-18.81,3.13-22.49,1.33Z" style="fill:#f7a9a0"></path><path d="M253.09,194s11,.15,19.81,2.72c6.13,1.79,19,7.15,23.72,25.59,1.11,4.38-.4,11.4-4.82,4.92-3.13-4.61-3.73-8.48-6-10.82,0,0-3,8.71-7.41,9.65a82.73,82.73,0,0,1-11.75,1.65,18.42,18.42,0,0,1-.5-2.17s-4.22.5-9.49-3.23Z" style="fill:#f7a9a0"></path><path d="M278.47,199.35c1.81,2.81,5.53,8.84,6.86,14.83,1.48,6.65,2.53,19.87-2.4,20.91-3.61.76-4.45-4.25-4.45-4.25s-.72,5.55-4.13,5.53c-3.11,0-3.53-3.94-3.53-3.94s-1,3.3-4,2.7c-3.6-.72-.88-7.51-3.9-11.38C262.25,222.88,278.47,199.35,278.47,199.35Z" style="fill:#f7a9a0"></path><path d="M278,214.57a27.21,27.21,0,0,1,.55,16.18c0,.13-.17.17-.16,0a66.53,66.53,0,0,0-.45-16.21S278,214.54,278,214.57Z" style="fill:#263238"></path><path d="M271.37,216.25c.83,2.64,1.68,10.3-.42,16.19-.05.13-.18.16-.16,0a71.36,71.36,0,0,0,.51-16.21S271.36,216.22,271.37,216.25Z" style="fill:#263238"></path><path d="M278.25,198.74a73.26,73.26,0,0,0,8.14,3,14.33,14.33,0,0,0,4.22.69c1.44-.07,2.89-.21,4.36-.25a9.3,9.3,0,0,1,4.39.68,2.25,2.25,0,0,1,.86.82,2.19,2.19,0,0,1,.27,1.17,3.51,3.51,0,0,1-.92,2.08,11.3,11.3,0,0,1-3.57,2.57,15.75,15.75,0,0,1-4.17,1.29,15.75,15.75,0,0,0,4.06-1.51,10.84,10.84,0,0,0,3.38-2.6,3.29,3.29,0,0,0,.79-1.85,1.68,1.68,0,0,0-.93-1.58,9.1,9.1,0,0,0-4.15-.57c-1.44,0-2.89.14-4.35.21a14.11,14.11,0,0,1-4.35-.78A55.18,55.18,0,0,1,278.25,198.74Z" style="fill:#263238"></path><path d="M289.68,207.8a44.92,44.92,0,0,1,5.31,8.87,32,32,0,0,1,1.74,4.9,14.24,14.24,0,0,1,.55,5.21,5.21,5.21,0,0,1-.9,2.58,2,2,0,0,1-1.29.8,2.29,2.29,0,0,1-1.45-.37,6.87,6.87,0,0,1-1.9-1.94,17.23,17.23,0,0,1-1.31-2.28,50.58,50.58,0,0,0-4.93-9l.58-.26a59,59,0,0,1,.67,9.75,22.8,22.8,0,0,1-.57,4.86,8.69,8.69,0,0,1-.86,2.29,3.45,3.45,0,0,1-1.76,1.63,3.41,3.41,0,0,0,1.64-1.69,9.15,9.15,0,0,0,.74-2.29,25.8,25.8,0,0,0,.38-4.81,64.82,64.82,0,0,0-.89-9.63l-.19-1.25.77,1a50.41,50.41,0,0,1,5.09,9,18.87,18.87,0,0,0,1.24,2.2,6.33,6.33,0,0,0,1.66,1.75,1.68,1.68,0,0,0,1,.28,1.25,1.25,0,0,0,.84-.53,4.58,4.58,0,0,0,.78-2.23,14.74,14.74,0,0,0-.46-5,31.32,31.32,0,0,0-1.58-4.86A52,52,0,0,0,289.68,207.8Z" style="fill:#263238"></path><path d="M252.19,225.29,264,194l-16.63-7c-1.51-10.53-4.52-31.58-6.65-38.71-2.5-8.36-8.47-7.17-11.08,1.33-6,19.44-8,52.32-5.89,57C226.69,213.25,252.19,225.29,252.19,225.29Z" style="fill:#07A2C6"></path><path d="M248.54,219.51c.37-2.07,3.27-10.22,4-12.25s4-10,4.78-12.11c0-.11.21-.09.17,0-.73,2.07-3.36,10.35-4.09,12.38s-3.71,10.13-4.76,12C248.61,219.6,248.53,219.57,248.54,219.51Z" style="fill:#263238"></path><path d="M241.47,219.78q-3.84-2.11-7.56-4.44a71.14,71.14,0,0,1-7.18-5,13.84,13.84,0,0,1-3.06-3.23,12.56,12.56,0,0,1-1-4.34,64.62,64.62,0,0,1-.05-8.8c.26-5.85,1-11.66,1.7-17.46s1.72-11.56,2.84-17.29Q226,167.88,225,176.56c-.7,5.8-1.27,11.6-1.64,17.42a76.72,76.72,0,0,0-.07,8.71,12.29,12.29,0,0,0,.83,4.17A13.48,13.48,0,0,0,227,210,111.34,111.34,0,0,0,241.47,219.78Z" style="fill:#263238"></path><path d="M226.33,164.12a8.41,8.41,0,0,1-.23-1.65,4.85,4.85,0,0,1,.16-1.65c0,.28,0,.55.05.82l0,.82A13.16,13.16,0,0,1,226.33,164.12Z" style="fill:#263238"></path><path d="M243.72,164.47c.73,3.33,1.17,6.72,1.7,10.08s1,6.75,1.58,10.1l.23,1.25c.05.2.09.41.14.61l.09.28c0,.06,0,0,0,.06s.07,0,.1.07c.67.37,1.5.72,2.26,1.06l4.7,2,9.42,4h0v0l-.32.78.28-.79v0c-3.2-1.17-6.38-2.4-9.55-3.66-1.58-.62-3.16-1.28-4.73-1.95a24.92,24.92,0,0,1-2.37-1.1.74.74,0,0,1-.16-.12A.78.78,0,0,1,247,187l-.11-.33c-.06-.22-.1-.43-.15-.64q-.13-.63-.24-1.26c-.56-3.37-1-6.75-1.46-10.13l-.64-5.08C244.2,167.84,244.05,166.14,243.72,164.47Z" style="fill:#263238"></path><path d="M244.63,165.38a8.38,8.38,0,0,1,0,1.66,5.06,5.06,0,0,1-.35,1.63c0-.28,0-.55.05-.82l0-.83A12.9,12.9,0,0,1,244.63,165.38Z" style="fill:#263238"></path></g></svg>